<svg xmlns="http://www.w3.org/2000/svg" width="2400" height="842" viewBox="0 0 2400 842" font-family="DejaVu Sans Mono, Menlo, monospace">
<rect width="2400" height="842" fill="#0c0f0c"/>
<line x1="60" y1="778" x2="2350" y2="778" stroke="#1f3527" stroke-width="2"/>
<line x1="175.3846153846154" y1="772" x2="175.3846153846154" y2="784" stroke="#2a4633" stroke-width="2"/>
<text x="175.3846153846154" y="802" text-anchor="middle" font-size="12" fill="#3f6b4e" letter-spacing="2">1990</text>
<line x1="175.3846153846154" y1="140" x2="175.3846153846154" y2="766" stroke="#121a14" stroke-width="1"/>
<line x1="752.3076923076924" y1="772" x2="752.3076923076924" y2="784" stroke="#2a4633" stroke-width="2"/>
<text x="752.3076923076924" y="802" text-anchor="middle" font-size="12" fill="#3f6b4e" letter-spacing="2">2000</text>
<line x1="752.3076923076924" y1="140" x2="752.3076923076924" y2="766" stroke="#121a14" stroke-width="1"/>
<line x1="1329.2307692307693" y1="772" x2="1329.2307692307693" y2="784" stroke="#2a4633" stroke-width="2"/>
<text x="1329.2307692307693" y="802" text-anchor="middle" font-size="12" fill="#3f6b4e" letter-spacing="2">2010</text>
<line x1="1329.2307692307693" y1="140" x2="1329.2307692307693" y2="766" stroke="#121a14" stroke-width="1"/>
<line x1="1906.1538461538462" y1="772" x2="1906.1538461538462" y2="784" stroke="#2a4633" stroke-width="2"/>
<text x="1906.1538461538462" y="802" text-anchor="middle" font-size="12" fill="#3f6b4e" letter-spacing="2">2020</text>
<line x1="1906.1538461538462" y1="140" x2="1906.1538461538462" y2="766" stroke="#121a14" stroke-width="1"/>
<line x1="1675.3846153846155" y1="238" x2="1675.3846153846155" y2="296" stroke="#3b5c48" stroke-width="1.6" stroke-dasharray="4 6" opacity="0.8"/>
<line x1="1848.4615384615383" y1="412" x2="1848.4615384615383" y2="238" stroke="#3b5c48" stroke-width="1.6" stroke-dasharray="4 6" opacity="0.8"/>
<line x1="406.1538461538462" y1="180" x2="463.84615384615387" y2="180" stroke="#43ff6e" stroke-width="4" stroke-linecap="round" opacity="0.85"/>
<circle cx="406.1538461538462" cy="180" r="6" fill="#0c0f0c" stroke="#43ff6e" stroke-width="3"/>
<text x="406.1538461538462" y="166" text-anchor="start" font-size="12" font-weight="700" fill="#e8f5ea">Labyrinth</text>
<line x1="636.9230769230769" y1="180" x2="2252.3076923076924" y2="180" stroke="#43ff6e" stroke-width="4" stroke-linecap="round" opacity="0.85"/>
<path d="M 2258.3076923076924 174 L 2268.3076923076924 180 L 2258.3076923076924 186" fill="none" stroke="#43ff6e" stroke-width="2.5" stroke-linecap="round" stroke-linejoin="round"/>
<circle cx="636.9230769230769" cy="180" r="6" fill="#0c0f0c" stroke="#43ff6e" stroke-width="3"/>
<text x="636.9230769230769" y="166" text-anchor="start" font-size="12" font-weight="400" fill="#e8f5ea">FreeWRL</text>
<line x1="463.84615384615387" y1="470" x2="867.6923076923077" y2="470" stroke="#43ff6e" stroke-width="4" stroke-linecap="round" opacity="0.85"/>
<circle cx="463.84615384615387" cy="470" r="6" fill="#0c0f0c" stroke="#43ff6e" stroke-width="3"/>
<text x="463.84615384615387" y="492.64" text-anchor="start" font-size="12" font-weight="700" fill="#e8f5ea">blaxxun Contact</text>
<line x1="1040.769230769231" y1="470" x2="1848.4615384615383" y2="470" stroke="#43ff6e" stroke-width="4" stroke-linecap="round" opacity="0.85"/>
<circle cx="1040.769230769231" cy="470" r="6" fill="#0c0f0c" stroke="#43ff6e" stroke-width="3"/>
<text x="1040.769230769231" y="494.08" text-anchor="start" font-size="14" font-weight="400" fill="#e8f5ea">Unity Web Player</text>
<line x1="463.84615384615387" y1="296" x2="636.9230769230769" y2="296" stroke="#43ff6e" stroke-width="4" stroke-linecap="round" opacity="0.85"/>
<circle cx="463.84615384615387" cy="296" r="6" fill="#0c0f0c" stroke="#43ff6e" stroke-width="3"/>
<text x="463.84615384615387" y="282" text-anchor="start" font-size="14" font-weight="400" fill="#e8f5ea">Live3D</text>
<line x1="925.3846153846155" y1="296" x2="1329.2307692307693" y2="296" stroke="#43ff6e" stroke-width="4" stroke-linecap="round" opacity="0.85"/>
<circle cx="925.3846153846155" cy="296" r="6" fill="#0c0f0c" stroke="#43ff6e" stroke-width="3"/>
<text x="925.3846153846155" y="282" text-anchor="start" font-size="12" font-weight="400" fill="#e8f5ea">Vivaty (Media Machines / Flux)</text>
<line x1="1502.3076923076924" y1="296" x2="2252.3076923076924" y2="296" stroke="#43ff6e" stroke-width="4" stroke-linecap="round" opacity="0.85"/>
<path d="M 2258.3076923076924 290 L 2268.3076923076924 296 L 2258.3076923076924 302" fill="none" stroke="#43ff6e" stroke-width="2.5" stroke-linecap="round" stroke-linejoin="round"/>
<circle cx="1502.3076923076924" cy="296" r="6" fill="#0c0f0c" stroke="#43ff6e" stroke-width="3"/>
<text x="1502.3076923076924" y="282" text-anchor="start" font-size="12" font-weight="400" fill="#e8f5ea">Elation Engine</text>
<line x1="463.84615384615387" y1="354" x2="579.2307692307693" y2="354" stroke="#43ff6e" stroke-width="4" stroke-linecap="round" opacity="0.85"/>
<circle cx="463.84615384615387" cy="354" r="6" fill="#0c0f0c" stroke="#43ff6e" stroke-width="3"/>
<text x="463.84615384615387" y="340" text-anchor="start" font-size="12" font-weight="700" fill="#e8f5ea">WebSpace Navigator</text>
<line x1="521.5384615384615" y1="354" x2="694.6153846153846" y2="354" stroke="#43ff6e" stroke-width="4" stroke-linecap="round" opacity="0.85"/>
<circle cx="521.5384615384615" cy="354" r="6" fill="#0c0f0c" stroke="#43ff6e" stroke-width="3"/>
<text x="521.5384615384615" y="378.08" text-anchor="start" font-size="14" font-weight="700" fill="#e8f5ea">Cosmo Player</text>
<line x1="1271.5384615384614" y1="354" x2="2252.3076923076924" y2="354" stroke="#43ff6e" stroke-width="4" stroke-linecap="round" opacity="0.85"/>
<path d="M 2258.3076923076924 348 L 2268.3076923076924 354 L 2258.3076923076924 360" fill="none" stroke="#43ff6e" stroke-width="2.5" stroke-linecap="round" stroke-linejoin="round"/>
<circle cx="1271.5384615384614" cy="354" r="6" fill="#0c0f0c" stroke="#43ff6e" stroke-width="3"/>
<text x="1271.5384615384614" y="340" text-anchor="start" font-size="12" font-weight="700" fill="#e8f5ea">X3DOM</text>
<line x1="463.84615384615387" y1="528" x2="694.6153846153846" y2="528" stroke="#43ff6e" stroke-width="4" stroke-linecap="round" opacity="0.85"/>
<circle cx="463.84615384615387" cy="528" r="6" fill="#0c0f0c" stroke="#43ff6e" stroke-width="3"/>
<text x="463.84615384615387" y="550.64" text-anchor="start" font-size="12" font-weight="700" fill="#e8f5ea">WorldView</text>
<line x1="1444.6153846153848" y1="528" x2="2252.3076923076924" y2="528" stroke="#43ff6e" stroke-width="4" stroke-linecap="round" opacity="0.85"/>
<path d="M 2258.3076923076924 522 L 2268.3076923076924 528 L 2258.3076923076924 534" fill="none" stroke="#43ff6e" stroke-width="2.5" stroke-linecap="round" stroke-linejoin="round"/>
<circle cx="1444.6153846153848" cy="528" r="6" fill="#0c0f0c" stroke="#43ff6e" stroke-width="3"/>
<text x="1444.6153846153848" y="552.08" text-anchor="start" font-size="14" font-weight="400" fill="#e8f5ea">Sketchfab</text>
<line x1="521.5384615384615" y1="412" x2="925.3846153846155" y2="412" stroke="#43ff6e" stroke-width="6" stroke-linecap="round"/>
<circle cx="521.5384615384615" cy="412" r="6" fill="#0c0f0c" stroke="#43ff6e" stroke-width="3"/>
<text x="521.5384615384615" y="398" text-anchor="start" font-size="12" font-weight="700" fill="#e8f5ea">Sony Community Place</text>
<line x1="1502.3076923076924" y1="412" x2="1560" y2="412" stroke="#43ff6e" stroke-width="6" stroke-linecap="round"/>
<circle cx="1502.3076923076924" cy="412" r="6" fill="#0c0f0c" stroke="#43ff6e" stroke-width="3"/>
<text x="1502.3076923076924" y="398" text-anchor="start" font-size="12" font-weight="700" fill="#e8f5ea">FireBox</text>
<line x1="1560" y1="412" x2="1848.4615384615383" y2="412" stroke="#43ff6e" stroke-width="6" stroke-linecap="round"/>
<circle cx="1560" cy="412" r="6" fill="#0c0f0c" stroke="#43ff6e" stroke-width="3"/>
<text x="1560" y="436.08" text-anchor="start" font-size="14" font-weight="700" fill="#e8f5ea">JanusVR</text>
<line x1="1848.4615384615383" y1="412" x2="2252.3076923076924" y2="412" stroke="#43ff6e" stroke-width="6" stroke-linecap="round"/>
<path d="M 2258.3076923076924 406 L 2268.3076923076924 412 L 2258.3076923076924 418" fill="none" stroke="#43ff6e" stroke-width="2.5" stroke-linecap="round" stroke-linejoin="round"/>
<circle cx="1848.4615384615383" cy="412" r="6" fill="#0c0f0c" stroke="#43ff6e" stroke-width="3"/>
<text x="1848.4615384615383" y="398" text-anchor="start" font-size="14" font-weight="400" fill="#e8f5ea">JanusXR</text>
<line x1="694.6153846153846" y1="644" x2="2252.3076923076924" y2="644" stroke="#43ff6e" stroke-width="4" stroke-linecap="round" opacity="0.85"/>
<path d="M 2258.3076923076924 638 L 2268.3076923076924 644 L 2258.3076923076924 650" fill="none" stroke="#43ff6e" stroke-width="2.5" stroke-linecap="round" stroke-linejoin="round"/>
<circle cx="694.6153846153846" cy="644" r="6" fill="#0c0f0c" stroke="#43ff6e" stroke-width="3"/>
<text x="694.6153846153846" y="666.64" text-anchor="start" font-size="12" font-weight="400" fill="#e8f5ea">Cortona3D</text>
<line x1="1675.3846153846155" y1="238" x2="2252.3076923076924" y2="238" stroke="#43ff6e" stroke-width="4" stroke-linecap="round" opacity="0.85"/>
<path d="M 2258.3076923076924 232 L 2268.3076923076924 238 L 2258.3076923076924 244" fill="none" stroke="#43ff6e" stroke-width="2.5" stroke-linecap="round" stroke-linejoin="round"/>
<circle cx="1675.3846153846155" cy="238" r="6" fill="#0c0f0c" stroke="#43ff6e" stroke-width="3"/>
<text x="1675.3846153846155" y="224" text-anchor="start" font-size="14" font-weight="400" fill="#e8f5ea">JanusWeb</text>
<line x1="1790.769230769231" y1="586" x2="2136.923076923077" y2="586" stroke="#43ff6e" stroke-width="4" stroke-linecap="round" opacity="0.85"/>
<circle cx="1790.769230769231" cy="586" r="6" fill="#0c0f0c" stroke="#43ff6e" stroke-width="3"/>
<text x="1790.769230769231" y="610.08" text-anchor="start" font-size="14" font-weight="400" fill="#e8f5ea">Mozilla Hubs</text>
<rect x="60" y="42" width="14" height="34" rx="4" fill="#43ff6e"/>
<text x="90" y="68" font-size="30" font-weight="700" fill="#e8f5ea">WEB3D LINE</text>
<text x="90" y="94" font-size="14" fill="#2a9e4f">line diagram · bar length is a lifespan · dashes are successions · drops are foundations</text>
<text x="2340" y="818" text-anchor="end" font-size="12" fill="#2a9e4f">janusxr.org — the virtual worlds history project · CC BY-SA 4.0</text>
</svg>